<svg width="23" height="24" viewBox="0 0 23 24" fill="none" xmlns="http://www.w3.org/2000/svg">
<path fill-rule="evenodd" clip-rule="evenodd" d="M3.18662 9.50003L10.7628 1.92389L11.7056 2.8667L4.12943 10.4428L3.18662 9.50003Z" fill="#999999"/>
<path fill-rule="evenodd" clip-rule="evenodd" d="M5.70067 12.0141L13.2768 4.43793L14.2196 5.38074L6.64348 12.9569L5.70067 12.0141Z" fill="#999999"/>
<path fill-rule="evenodd" clip-rule="evenodd" d="M11.0433 17.3567L18.6195 9.78058L19.5623 10.7234L11.9861 18.2995L11.0433 17.3567Z" fill="#999999"/>
<path fill-rule="evenodd" clip-rule="evenodd" d="M13.5574 19.8708L21.1335 12.2946L22.0763 13.2374L14.5002 20.8136L13.5574 19.8708Z" fill="#999999"/>
<path fill-rule="evenodd" clip-rule="evenodd" d="M13.5574 19.8709C10.9423 22.486 6.71181 22.4954 4.10831 19.8919C1.50482 17.2884 1.51424 13.0579 4.12936 10.4428L3.18655 9.5C0.0484047 12.6381 0.0370982 17.7148 3.16129 20.839C6.28549 23.9632 11.3621 23.9519 14.5003 20.8137L13.5574 19.8709Z" fill="#999999"/>
<path fill-rule="evenodd" clip-rule="evenodd" d="M18.6195 9.78055L19.5623 10.7234C22.003 8.28259 22.0118 4.3341 19.5819 1.90417C17.152 -0.525759 13.2035 -0.516965 10.7627 1.92381L11.7055 2.86662C13.6233 0.948868 16.7257 0.941958 18.6349 2.85119C20.5441 4.76042 20.5372 7.8628 18.6195 9.78055Z" fill="#999999"/>
<path fill-rule="evenodd" clip-rule="evenodd" d="M5.70092 12.0144C3.95751 13.7578 3.95123 16.5782 5.68689 18.3138C7.42255 20.0495 10.2429 20.0432 11.9863 18.2998L11.0435 17.357C9.82312 18.5774 7.84887 18.5818 6.63391 17.3668C5.41894 16.1518 5.42334 14.1776 6.64373 12.9572L5.70092 12.0144Z" fill="#999999"/>
</svg>
